<?xml version="1.0" encoding="UTF-8"?><svg id="uuid-26e85b91-9059-43e6-9d5e-721876500ecf" xmlns="http://www.w3.org/2000/svg" viewBox="0 0 56.1 23.22"><defs><style>.uuid-855578b0-24c6-4937-beac-86e7a9a1eff8{stroke-width:0px;}</style></defs><g id="uuid-11b53c79-ec51-4b95-82f1-d48e326c52a6"><path class="uuid-855578b0-24c6-4937-beac-86e7a9a1eff8" d="M5.72,2.45v20.57H0V2.45h5.72Z"/><path class="uuid-855578b0-24c6-4937-beac-86e7a9a1eff8" d="M24.19,8.39c1.11,1.25,1.66,2.95,1.66,5.09v9.54h-5.72v-8.78c0-.93-.24-1.67-.73-2.2-.49-.53-1.14-.8-1.95-.8-.86,0-1.53.27-2.01.8-.49.54-.73,1.27-.73,2.2v8.78h-5.72V6.65h5.72v2.33c.51-.74,1.19-1.34,2.04-1.79.86-.46,1.84-.69,2.95-.69,1.89,0,3.38.63,4.49,1.88Z"/><path class="uuid-855578b0-24c6-4937-beac-86e7a9a1eff8" d="M37.84,11.41h-2.57v11.61h-5.75v-11.61h-1.78v-4.76h1.78v-.15c0-2.1.62-3.71,1.85-4.83,1.23-1.12,3.01-1.68,5.32-1.68.47,0,.83,0,1.08.03v4.87c-.16-.02-.37-.03-.64-.03-.62,0-1.08.14-1.37.42-.29.28-.46.73-.5,1.36h2.57v4.76Z"/><path class="uuid-855578b0-24c6-4937-beac-86e7a9a1eff8" d="M43.1,22.2c-1.29-.68-2.31-1.65-3.05-2.92-.74-1.26-1.11-2.75-1.11-4.46s.37-3.17,1.12-4.43c.75-1.26,1.77-2.24,3.06-2.92,1.29-.68,2.76-1.02,4.39-1.02s3.1.34,4.39,1.02c1.29.68,2.31,1.65,3.06,2.92.75,1.26,1.12,2.74,1.12,4.43s-.37,3.18-1.12,4.45c-.75,1.27-1.77,2.25-3.08,2.93-1.3.68-2.77,1.02-4.41,1.02s-3.1-.34-4.39-1.02ZM49.49,17.37c.53-.59.8-1.44.8-2.55s-.27-1.95-.8-2.54c-.54-.58-1.19-.88-1.97-.88s-1.43.29-1.95.88c-.53.58-.79,1.43-.79,2.54s.25,1.98.76,2.57c.5.58,1.16.88,1.95.88s1.46-.3,2-.89Z"/></g></svg>